
<svg width="60" height="86" viewBox="0 0 60 86" fill="none" xmlns="http://www.w3.org/2000/svg">
<path fill-rule="evenodd" clip-rule="evenodd" d="M1.17364 26.9327L26.6743 1.43205C28.2391 -0.132796 30.7763 -0.132796 32.3411 1.43205L57.8418 26.9327C59.4066 28.4976 59.4066 31.0347 57.8418 32.5995C56.2769 34.1644 53.7398 34.1644 52.175 32.5995L33.5147 13.9393L33.5147 60.3641C33.5147 62.5771 31.7207 64.3711 29.5077 64.3711C27.2947 64.3711 25.5007 62.5771 25.5007 60.3641L25.5007 13.9393L6.84045 32.5995C5.2756 34.1644 2.73848 34.1644 1.17364 32.5995C-0.391211 31.0347 -0.39121 28.4976 1.17364 26.9327Z" fill="#002366"/>
<path fill-rule="evenodd" clip-rule="evenodd" d="M1.17364 58.989L26.6743 33.4883C28.2391 31.9235 30.7763 31.9235 32.3411 33.4883L57.8418 58.989C59.4066 60.5539 59.4066 63.091 57.8418 64.6558C56.2769 66.2207 53.7398 66.2207 52.175 64.6558L33.5147 45.9956L33.5147 81.7349C33.5147 83.9479 31.7207 85.7419 29.5077 85.7419C27.2947 85.7419 25.5007 83.9479 25.5007 81.7349L25.5007 45.9956L6.84045 64.6558C5.2756 66.2207 2.73848 66.2207 1.17364 64.6558C-0.391211 63.091 -0.391211 60.5539 1.17364 58.989Z" fill="#002366"/>
</svg>
