<svg width="31" height="24" viewBox="0 0 31 24" fill="none" xmlns="http://www.w3.org/2000/svg">
<path d="M25.8921 2.36463C23.9508 1.46501 21.8832 0.802129 19.7052 0.42334C19.4369 0.896826 19.1212 1.54392 18.916 2.06476C16.6117 1.71754 14.3232 1.71754 12.0663 2.06476C11.8453 1.54392 11.5296 0.896826 11.2613 0.42334C9.0833 0.802129 7.01574 1.46501 5.07445 2.36463C1.16029 8.26743 0.102838 14.0282 0.623673 19.6942C3.22785 21.6355 5.73733 22.8035 8.21524 23.5768C8.83077 22.7403 9.36739 21.8407 9.84088 20.9095C8.94125 20.5781 8.08898 20.1519 7.28405 19.6627C7.50501 19.5048 7.71019 19.3312 7.91537 19.1734C12.8554 21.4777 18.2058 21.4777 23.0827 19.1734C23.2879 19.347 23.4931 19.5048 23.714 19.6627C22.9091 20.1519 22.041 20.5623 21.1572 20.9095C21.6307 21.8407 22.1673 22.7403 22.7828 23.5768C25.2608 22.8035 27.786 21.6355 30.3744 19.6942C30.9899 13.1128 29.317 7.41516 25.9236 2.36463H25.8921ZM10.5038 16.222C9.02017 16.222 7.80489 14.8489 7.80489 13.1601C7.80489 11.4714 8.9886 10.0982 10.5038 10.0982C12.0189 10.0982 13.2184 11.4714 13.2026 13.1601C13.2026 14.8331 12.0189 16.222 10.5038 16.222ZM20.4628 16.222C18.9792 16.222 17.7639 14.8489 17.7639 13.1601C17.7639 11.4714 18.9476 10.0982 20.4628 10.0982C21.9779 10.0982 23.1774 11.4714 23.1616 13.1601C23.1616 14.8331 21.9779 16.222 20.4628 16.222Z" fill="url(#paint0_radial_643_2534)"/>
<defs>
<radialGradient id="paint0_radial_643_2534" cx="0" cy="0" r="1" gradientUnits="userSpaceOnUse" gradientTransform="translate(17.4509 9.19827) rotate(133.16) scale(20.9146 54.8721)">
<stop stop-color="#002366"/>
<stop offset="1"/>
</radialGradient>
</defs>
</svg>
