<svg width="31" height="24" viewBox="0 0 31 24" fill="none" xmlns="http://www.w3.org/2000/svg">
<path d="M26.2724 2.36512C24.3312 1.4655 22.2636 0.802617 20.0856 0.423828C19.8172 0.897315 19.5016 1.54441 19.2964 2.06525C16.9921 1.71802 14.7036 1.71802 12.4466 2.06525C12.2257 1.54441 11.91 0.897315 11.6417 0.423828C9.46367 0.802617 7.39611 1.4655 5.45482 2.36512C1.54066 8.26792 0.483209 14.0287 1.00404 19.6947C3.60822 21.636 6.1177 22.804 8.59561 23.5773C9.21114 22.7408 9.74776 21.8412 10.2212 20.91C9.32162 20.5786 8.46935 20.1524 7.66442 19.6632C7.88538 19.5053 8.09056 19.3317 8.29574 19.1739C13.2358 21.4782 18.5862 21.4782 23.4631 19.1739C23.6683 19.3475 23.8734 19.5053 24.0944 19.6632C23.2895 20.1524 22.4214 20.5628 21.5376 20.91C22.0111 21.8412 22.5477 22.7408 23.1632 23.5773C25.6411 22.804 28.1664 21.636 30.7548 19.6947C31.3703 13.1133 29.6973 7.41565 26.304 2.36512H26.2724ZM10.8841 16.2225C9.40054 16.2225 8.18526 14.8494 8.18526 13.1606C8.18526 11.4718 9.36897 10.0987 10.8841 10.0987C12.3993 10.0987 13.5988 11.4718 13.583 13.1606C13.583 14.8336 12.3993 16.2225 10.8841 16.2225ZM20.8431 16.2225C19.3595 16.2225 18.1443 14.8494 18.1443 13.1606C18.1443 11.4718 19.328 10.0987 20.8431 10.0987C22.3583 10.0987 23.5578 11.4718 23.542 13.1606C23.542 14.8336 22.3583 16.2225 20.8431 16.2225Z" fill="url(#paint0_radial_643_1669)"/>
<defs>
<radialGradient id="paint0_radial_643_1669" cx="0" cy="0" r="1" gradientUnits="userSpaceOnUse" gradientTransform="translate(17.8312 9.19876) rotate(133.16) scale(20.9146 54.8721)">
<stop stop-color="white"/>
<stop offset="1"/>
</radialGradient>
</defs>
</svg>
