<svg width="31" height="30" viewBox="0 0 31 30" fill="none" xmlns="http://www.w3.org/2000/svg">
<path d="M15.5 0.363281C13.5302 0.363281 11.5796 0.751268 9.75975 1.50509C7.93986 2.25891 6.28628 3.3638 4.8934 4.75668C2.08035 7.56973 0.5 11.385 0.5 15.3633C0.5 21.9933 4.805 27.6183 10.76 29.6133C11.51 29.7333 11.75 29.2683 11.75 28.8633C11.75 28.5183 11.75 27.5733 11.75 26.3283C7.595 27.2283 6.71 24.3183 6.71 24.3183C6.02 22.5783 5.045 22.1133 5.045 22.1133C3.68 21.1833 5.15 21.2133 5.15 21.2133C6.65 21.3183 7.445 22.7583 7.445 22.7583C8.75 25.0383 10.955 24.3633 11.81 24.0033C11.945 23.0283 12.335 22.3683 12.755 21.9933C9.425 21.6183 5.93 20.3283 5.93 14.6133C5.93 12.9483 6.5 11.6133 7.475 10.5483C7.325 10.1733 6.8 8.61328 7.625 6.58828C7.625 6.58828 8.885 6.18328 11.75 8.11828C12.935 7.78828 14.225 7.62328 15.5 7.62328C16.775 7.62328 18.065 7.78828 19.25 8.11828C22.115 6.18328 23.375 6.58828 23.375 6.58828C24.2 8.61328 23.675 10.1733 23.525 10.5483C24.5 11.6133 25.07 12.9483 25.07 14.6133C25.07 20.3433 21.56 21.6033 18.215 21.9783C18.755 22.4433 19.25 23.3583 19.25 24.7533V28.8633C19.25 29.2683 19.49 29.7483 20.255 29.6133C26.21 27.6033 30.5 21.9933 30.5 15.3633C30.5 13.3935 30.112 11.4429 29.3582 9.62303C28.6044 7.80315 27.4995 6.14956 26.1066 4.75668C24.7137 3.3638 23.0601 2.25891 21.2403 1.50509C19.4204 0.751268 17.4698 0.363281 15.5 0.363281Z" fill="url(#paint0_radial_643_2536)"/>
<defs>
<radialGradient id="paint0_radial_643_2536" cx="0" cy="0" r="1" gradientUnits="userSpaceOnUse" gradientTransform="translate(17.4509 11.4575) rotate(126.565) scale(24.0149 60.419)">
<stop stop-color="#002366"/>
<stop offset="1"/>
</radialGradient>
</defs>
</svg>
