<svg width="31" height="30" viewBox="0 0 31 30" fill="none" xmlns="http://www.w3.org/2000/svg">
<path d="M15.8804 0.364258C13.9105 0.364258 11.96 0.752244 10.1401 1.50607C8.32024 2.25989 6.66665 3.36478 5.27377 4.75766C2.46072 7.5707 0.880371 11.386 0.880371 15.3643C0.880371 21.9943 5.18537 27.6193 11.1404 29.6143C11.8904 29.7343 12.1304 29.2693 12.1304 28.8643C12.1304 28.5193 12.1304 27.5743 12.1304 26.3293C7.97537 27.2293 7.09037 24.3193 7.09037 24.3193C6.40037 22.5793 5.42537 22.1143 5.42537 22.1143C4.06037 21.1843 5.53037 21.2143 5.53037 21.2143C7.03037 21.3193 7.82537 22.7593 7.82537 22.7593C9.13037 25.0393 11.3354 24.3643 12.1904 24.0043C12.3254 23.0293 12.7154 22.3693 13.1354 21.9943C9.80537 21.6193 6.31037 20.3293 6.31037 14.6143C6.31037 12.9493 6.88037 11.6143 7.85537 10.5493C7.70537 10.1743 7.18037 8.61426 8.00537 6.58926C8.00537 6.58926 9.26537 6.18426 12.1304 8.11926C13.3154 7.78926 14.6054 7.62426 15.8804 7.62426C17.1554 7.62426 18.4454 7.78926 19.6304 8.11926C22.4954 6.18426 23.7554 6.58926 23.7554 6.58926C24.5804 8.61426 24.0554 10.1743 23.9054 10.5493C24.8804 11.6143 25.4504 12.9493 25.4504 14.6143C25.4504 20.3443 21.9404 21.6043 18.5954 21.9793C19.1354 22.4443 19.6304 23.3593 19.6304 24.7543V28.8643C19.6304 29.2693 19.8704 29.7493 20.6354 29.6143C26.5904 27.6043 30.8804 21.9943 30.8804 15.3643C30.8804 13.3944 30.4924 11.4439 29.7386 9.62401C28.9847 7.80412 27.8799 6.15054 26.487 4.75766C25.0941 3.36478 23.4405 2.25989 21.6206 1.50607C19.8007 0.752244 17.8502 0.364258 15.8804 0.364258Z" fill="url(#paint0_radial_643_1671)"/>
<defs>
<radialGradient id="paint0_radial_643_1671" cx="0" cy="0" r="1" gradientUnits="userSpaceOnUse" gradientTransform="translate(17.8312 11.4585) rotate(126.565) scale(24.0149 60.419)">
<stop stop-color="white"/>
<stop offset="1"/>
</radialGradient>
</defs>
</svg>
