<svg width="31" height="30" viewBox="0 0 31 30" fill="none" xmlns="http://www.w3.org/2000/svg">
<path fill-rule="evenodd" clip-rule="evenodd" d="M9.6962 0.0909765C11.2962 0.0176402 11.8062 0.000976562 15.8804 0.000976562C19.9553 0.000976562 20.4645 0.018472 22.0636 0.0909765C23.6611 0.163481 24.7521 0.417649 25.7062 0.788477C26.707 1.16526 27.6135 1.75562 28.3628 2.51848C29.1258 3.2677 29.7162 4.17433 30.0929 5.17515C30.4636 6.12931 30.717 7.22015 30.7904 8.8168C30.8637 10.4168 30.8804 10.9268 30.8804 15.001C30.8804 19.0751 30.8629 19.5851 30.7904 21.1852C30.7178 22.7818 30.4636 23.8727 30.0929 24.8268C29.7096 25.8127 29.1961 26.6501 28.3628 27.4834C27.6136 28.2464 26.707 28.8368 25.7062 29.2135C24.7521 29.5842 23.6611 29.8376 22.0646 29.911C20.4645 29.9843 19.9545 30.001 15.8804 30.001C11.8062 30.001 11.2962 29.9835 9.6962 29.911C8.09954 29.8384 7.0087 29.5842 6.05454 29.2135C5.0687 28.8302 4.23121 28.3167 3.39788 27.4834C2.63488 26.7342 2.04448 25.8276 1.66787 24.8268C1.29704 23.8727 1.04371 22.7818 0.970371 21.1852C0.897035 19.5851 0.880371 19.0759 0.880371 15.001C0.880371 10.926 0.897867 10.4168 0.970371 8.81765C1.04288 7.22015 1.29704 6.12931 1.66787 5.17515C2.04466 4.1744 2.63502 3.26781 3.39788 2.51848C4.14708 1.75549 5.05371 1.16509 6.05454 0.788477C7.0087 0.417649 8.09954 0.164313 9.6962 0.0909765ZM21.942 2.79098C20.3603 2.7193 19.8854 2.70347 15.8804 2.70347C11.8754 2.70347 11.4004 2.7193 9.81871 2.79098C8.35621 2.85764 7.56204 3.1018 7.0337 3.30764C6.3337 3.57931 5.8337 3.9043 5.3087 4.4293C4.78454 4.9543 4.4587 5.45431 4.18704 6.1543C3.9812 6.68265 3.73704 7.47681 3.67037 8.93931C3.5987 10.521 3.58287 10.996 3.58287 15.001C3.58287 19.006 3.5987 19.4809 3.67037 21.0626C3.73704 22.5251 3.9812 23.3193 4.18704 23.8477C4.42734 24.4993 4.81063 25.0886 5.3087 25.5727C5.79265 26.0707 6.38211 26.454 7.0337 26.6943C7.56204 26.9002 8.35621 27.1443 9.81871 27.211C11.4004 27.2827 11.8745 27.2985 15.8804 27.2985C19.8862 27.2985 20.3603 27.2827 21.942 27.211C23.4045 27.1443 24.1987 26.9002 24.7271 26.6943C25.4271 26.4227 25.9271 26.0977 26.4521 25.5727C26.9501 25.0887 27.3334 24.4993 27.5737 23.8477C27.7796 23.3193 28.0237 22.5251 28.0904 21.0626C28.1621 19.4809 28.1779 19.006 28.1779 15.001C28.1779 10.996 28.1621 10.521 28.0904 8.93931C28.0237 7.47681 27.7796 6.68265 27.5737 6.1543C27.3021 5.45431 26.9771 4.9543 26.4521 4.4293C25.9271 3.90515 25.4271 3.57931 24.7271 3.30764C24.1987 3.1018 23.4045 2.85764 21.942 2.79098ZM13.9651 19.6249C14.5724 19.8765 15.2231 20.0059 15.8804 20.0059C17.2079 20.0059 18.4808 19.4786 19.4194 18.54C20.3581 17.6014 20.8855 16.3283 20.8855 15.001C20.8855 13.6736 20.3581 12.4005 19.4194 11.4619C18.4808 10.5233 17.2079 9.99597 15.8804 9.99597C15.2231 9.99597 14.5724 10.1254 13.9651 10.377C13.3578 10.6285 12.8061 10.9971 12.3413 11.4619C11.8766 11.9267 11.5079 12.4784 11.2564 13.0856C11.0049 13.6928 10.8754 14.3437 10.8754 15.001C10.8754 15.6582 11.0049 16.3091 11.2564 16.9163C11.5079 17.5236 11.8766 18.0753 12.3413 18.54C12.8061 19.0047 13.3578 19.3735 13.9651 19.6249ZM10.4286 9.54917C11.8745 8.10327 13.8356 7.29096 15.8804 7.29096C17.9253 7.29096 19.8863 8.10327 21.3322 9.54917C22.7781 10.9951 23.5904 12.9562 23.5904 15.001C23.5904 17.0457 22.7781 19.0068 21.3322 20.4528C19.8863 21.8987 17.9253 22.711 15.8804 22.711C13.8356 22.711 11.8745 21.8987 10.4286 20.4528C8.98272 19.0068 8.17041 17.0457 8.17041 15.001C8.17041 12.9562 8.98272 10.9951 10.4286 9.54917ZM25.3 8.43968C25.6417 8.09788 25.8337 7.63433 25.8337 7.15097C25.8337 6.6676 25.6417 6.20405 25.3 5.86227C24.9581 5.52049 24.4946 5.32847 24.0112 5.32847C23.5279 5.32847 23.0643 5.52049 22.7226 5.86227C22.3807 6.20405 22.1887 6.6676 22.1887 7.15097C22.1887 7.63433 22.3807 8.09788 22.7226 8.43968C23.0643 8.78146 23.5279 8.97347 24.0112 8.97347C24.4946 8.97347 24.9581 8.78146 25.3 8.43968Z" fill="url(#paint0_radial_643_1673)"/>
<defs>
<radialGradient id="paint0_radial_643_1673" cx="0" cy="0" r="1" gradientUnits="userSpaceOnUse" gradientTransform="translate(17.8312 11.3707) rotate(125.895) scale(24.4012 60.9388)">
<stop stop-color="white"/>
<stop offset="1"/>
</radialGradient>
</defs>
</svg>
