<svg width="31" height="30" viewBox="0 0 31 30" fill="none" xmlns="http://www.w3.org/2000/svg">
<path fill-rule="evenodd" clip-rule="evenodd" d="M9.31583 0.09C10.9158 0.0166636 11.4258 0 15.5 0C19.575 0 20.0841 0.0174954 21.6833 0.09C23.2808 0.162505 24.3717 0.416673 25.3258 0.7875C26.3266 1.16429 27.2331 1.75465 27.9825 2.5175C28.7454 3.26673 29.3359 4.17336 29.7125 5.17417C30.0833 6.12833 30.3366 7.21917 30.41 8.81583C30.4834 10.4158 30.5 10.9258 30.5 15C30.5 19.0741 30.4825 19.5841 30.41 21.1842C30.3375 22.7808 30.0833 23.8717 29.7125 24.8258C29.3292 25.8117 28.8158 26.6491 27.9825 27.4825C27.2333 28.2454 26.3266 28.8359 25.3258 29.2125C24.3717 29.5833 23.2808 29.8366 21.6842 29.91C20.0841 29.9834 19.5741 30 15.5 30C11.4258 30 10.9158 29.9825 9.31583 29.91C7.71917 29.8375 6.62833 29.5833 5.67417 29.2125C4.68833 28.8292 3.85084 28.3158 3.0175 27.4825C2.25451 26.7333 1.66411 25.8266 1.2875 24.8258C0.916673 23.8717 0.663336 22.7808 0.59 21.1842C0.516664 19.5841 0.5 19.075 0.5 15C0.5 10.925 0.517495 10.4158 0.59 8.81667C0.662505 7.21917 0.916673 6.12833 1.2875 5.17417C1.66429 4.17342 2.25465 3.26684 3.0175 2.5175C3.76671 1.75451 4.67334 1.16411 5.67417 0.7875C6.62833 0.416673 7.71917 0.163336 9.31583 0.09ZM21.5616 2.79C19.98 2.71833 19.505 2.7025 15.5 2.7025C11.495 2.7025 11.02 2.71833 9.43834 2.79C7.97584 2.85667 7.18167 3.10083 6.65333 3.30667C5.95333 3.57833 5.45333 3.90333 4.92833 4.42833C4.40417 4.95333 4.07833 5.45333 3.80667 6.15333C3.60083 6.68167 3.35667 7.47584 3.29 8.93834C3.21833 10.52 3.2025 10.995 3.2025 15C3.2025 19.005 3.21833 19.48 3.29 21.0616C3.35667 22.5241 3.60083 23.3183 3.80667 23.8467C4.04697 24.4983 4.43026 25.0876 4.92833 25.5717C5.41228 26.0697 6.00174 26.453 6.65333 26.6933C7.18167 26.8992 7.97584 27.1433 9.43834 27.21C11.02 27.2817 11.4942 27.2975 15.5 27.2975C19.5058 27.2975 19.98 27.2817 21.5616 27.21C23.0241 27.1433 23.8183 26.8992 24.3467 26.6933C25.0467 26.4217 25.5467 26.0967 26.0717 25.5717C26.5697 25.0878 26.953 24.4983 27.1933 23.8467C27.3992 23.3183 27.6433 22.5241 27.71 21.0616C27.7817 19.48 27.7975 19.005 27.7975 15C27.7975 10.995 27.7817 10.52 27.71 8.93834C27.6433 7.47584 27.3992 6.68167 27.1933 6.15333C26.9217 5.45333 26.5967 4.95333 26.0717 4.42833C25.5467 3.90417 25.0467 3.57833 24.3467 3.30667C23.8183 3.10083 23.0241 2.85667 21.5616 2.79ZM13.5848 19.624C14.192 19.8755 14.8427 20.005 15.5 20.005C16.8275 20.005 18.1005 19.4776 19.039 18.539C19.9778 17.6005 20.5051 16.3274 20.5051 15C20.5051 13.6726 19.9778 12.3995 19.039 11.4609C18.1005 10.5223 16.8275 9.99499 15.5 9.99499C14.8427 9.99499 14.192 10.1245 13.5848 10.376C12.9774 10.6275 12.4257 10.9962 11.961 11.4609C11.4962 11.9257 11.1275 12.4774 10.876 13.0846C10.6245 13.6919 10.495 14.3427 10.495 15C10.495 15.6573 10.6245 16.3081 10.876 16.9154C11.1275 17.5226 11.4962 18.0743 11.961 18.539C12.4257 19.0038 12.9774 19.3725 13.5848 19.624ZM10.0483 9.5482C11.4942 8.10229 13.4552 7.28999 15.5 7.28999C17.5449 7.28999 19.506 8.10229 20.9518 9.5482C22.3977 10.9941 23.21 12.9552 23.21 15C23.21 17.0448 22.3977 19.0058 20.9518 20.4518C19.506 21.8977 17.5449 22.71 15.5 22.71C13.4552 22.71 11.4942 21.8977 10.0483 20.4518C8.60235 19.0058 7.79004 17.0448 7.79004 15C7.79004 12.9552 8.60235 10.9941 10.0483 9.5482ZM24.9196 8.4387C25.2613 8.0969 25.4533 7.63335 25.4533 7.15C25.4533 6.66663 25.2613 6.20307 24.9196 5.86129C24.5777 5.51951 24.1142 5.3275 23.6308 5.3275C23.1475 5.3275 22.6839 5.51951 22.3422 5.86129C22.0003 6.20307 21.8083 6.66663 21.8083 7.15C21.8083 7.63335 22.0003 8.0969 22.3422 8.4387C22.6839 8.78048 23.1475 8.9725 23.6308 8.9725C24.1142 8.9725 24.5777 8.78048 24.9196 8.4387Z" fill="url(#paint0_radial_643_2538)"/>
<defs>
<radialGradient id="paint0_radial_643_2538" cx="0" cy="0" r="1" gradientUnits="userSpaceOnUse" gradientTransform="translate(17.4509 11.3697) rotate(125.895) scale(24.4012 60.9388)">
<stop stop-color="#002366"/>
<stop offset="1"/>
</radialGradient>
</defs>
</svg>
