<svg width="31" height="26" viewBox="0 0 31 26" fill="none" xmlns="http://www.w3.org/2000/svg">
<path d="M27.7967 6.89069C27.8157 7.15717 27.8157 7.42372 27.8157 7.6902C27.8157 15.8184 21.6292 25.1839 10.322 25.1839C6.8385 25.1839 3.60247 24.175 0.880371 22.4238C1.37531 22.4808 1.85116 22.4999 2.36514 22.4999C5.23947 22.4999 7.88546 21.5291 9.99841 19.873C7.29536 19.8159 5.03011 18.0456 4.24964 15.609C4.63039 15.6661 5.01107 15.7042 5.41086 15.7042C5.96287 15.7042 6.51494 15.628 7.02887 15.4948C4.21161 14.9237 2.0986 12.4491 2.0986 9.4605V9.38439C2.9171 9.84125 3.86896 10.1268 4.87777 10.1648C3.22167 9.06072 2.13668 7.17622 2.13668 5.04422C2.13668 3.9021 2.4412 2.85514 2.97423 1.94143C6.0009 5.6724 10.5504 8.10892 15.6519 8.37546C15.5568 7.9186 15.4996 7.44276 15.4996 6.96686C15.4996 3.57849 18.2408 0.818359 21.6481 0.818359C23.4184 0.818359 25.0174 1.56075 26.1405 2.75999C27.5301 2.4935 28.8626 1.97952 30.0428 1.27522C29.5859 2.70292 28.6151 3.90216 27.3398 4.66353C28.5771 4.53035 29.7763 4.18763 30.8804 3.71179C30.0429 4.93002 28.9959 6.015 27.7967 6.89069Z" fill="url(#paint0_radial_643_1667)"/>
<defs>
<radialGradient id="paint0_radial_643_1667" cx="0" cy="0" r="1" gradientUnits="userSpaceOnUse" gradientTransform="translate(17.8312 10.0526) rotate(131.704) scale(21.5041 56.1616)">
<stop stop-color="white"/>
<stop offset="1"/>
</radialGradient>
</defs>
</svg>
