<svg width="31" height="26" viewBox="0 0 31 26" fill="none" xmlns="http://www.w3.org/2000/svg">
<path d="M27.4163 6.88947C27.4354 7.15595 27.4354 7.4225 27.4354 7.68898C27.4354 15.8171 21.2488 25.1827 9.94166 25.1827C6.45813 25.1827 3.2221 24.1738 0.5 22.4226C0.994943 22.4796 1.47079 22.4987 1.98477 22.4987C4.8591 22.4987 7.50509 21.5279 9.61804 19.8718C6.91499 19.8147 4.64974 18.0444 3.86927 15.6078C4.25001 15.6649 4.6307 15.7029 5.03049 15.7029C5.5825 15.7029 6.13457 15.6268 6.6485 15.4936C3.83124 14.9225 1.71823 12.4479 1.71823 9.45928V9.38317C2.53673 9.84003 3.48859 10.1256 4.4974 10.1636C2.8413 9.0595 1.75631 7.175 1.75631 5.043C1.75631 3.90088 2.06083 2.85392 2.59386 1.94021C5.62053 5.67118 10.1701 8.1077 15.2715 8.37424C15.1764 7.91738 15.1193 7.44154 15.1193 6.96564C15.1193 3.57727 17.8604 0.817139 21.2678 0.817139C23.0381 0.817139 24.637 1.55952 25.7602 2.75877C27.1497 2.49228 28.4822 1.9783 29.6625 1.274C29.2055 2.7017 28.2348 3.90094 26.9594 4.66231C28.1967 4.52913 29.396 4.18641 30.5 3.71057C29.6626 4.9288 28.6156 6.01378 27.4163 6.88947Z" fill="url(#paint0_radial_643_2532)"/>
<defs>
<radialGradient id="paint0_radial_643_2532" cx="0" cy="0" r="1" gradientUnits="userSpaceOnUse" gradientTransform="translate(17.4509 10.0514) rotate(131.704) scale(21.5041 56.1616)">
<stop stop-color="#002366"/>
<stop offset="1"/>
</radialGradient>
</defs>
</svg>
